<mxfile host="app.diagrams.net" modified="2021-08-10T05:27:44.873Z" agent="5.0 (Macintosh; Intel Mac OS X 10_15_7) AppleWebKit/537.36 (KHTML, like Gecko) Chrome/92.0.4515.107 Safari/537.36" etag="0kLr_RreThW2ijYxwsYf" version="14.9.5" type="github" pages="5">
  <diagram id="ONSBr9gZitLyCauHxjVm" name="编译缓存原理">
    <mxGraphModel dx="1538" dy="834" grid="1" gridSize="10" guides="1" tooltips="1" connect="1" arrows="1" fold="1" page="1" pageScale="1" pageWidth="827" pageHeight="1169" math="0" shadow="0">
      <root>
        <mxCell id="0" />
        <mxCell id="1" parent="0" />
        <mxCell id="Z_IEBth9gw-ow5rgfO6a-1" value="Task" style="rounded=1;whiteSpace=wrap;html=1;fillColor=#66B2FF;" parent="1" vertex="1">
          <mxGeometry x="220" y="210" width="120" height="60" as="geometry" />
        </mxCell>
        <mxCell id="Z_IEBth9gw-ow5rgfO6a-2" value="" style="shape=flexArrow;endArrow=classic;html=1;fillColor=#FCFFB3;" parent="1" edge="1">
          <mxGeometry width="50" height="50" relative="1" as="geometry">
            <mxPoint x="140" y="240" as="sourcePoint" />
            <mxPoint x="210" y="239.5" as="targetPoint" />
          </mxGeometry>
        </mxCell>
        <mxCell id="Z_IEBth9gw-ow5rgfO6a-3" value="" style="shape=flexArrow;endArrow=classic;html=1;fillColor=#FCFFB3;" parent="1" edge="1">
          <mxGeometry width="50" height="50" relative="1" as="geometry">
            <mxPoint x="150" y="180" as="sourcePoint" />
            <mxPoint x="210" y="210" as="targetPoint" />
          </mxGeometry>
        </mxCell>
        <mxCell id="Z_IEBth9gw-ow5rgfO6a-4" value="" style="shape=flexArrow;endArrow=classic;html=1;fillColor=#FCFFB3;" parent="1" edge="1">
          <mxGeometry width="50" height="50" relative="1" as="geometry">
            <mxPoint x="150" y="290" as="sourcePoint" />
            <mxPoint x="210" y="270" as="targetPoint" />
          </mxGeometry>
        </mxCell>
        <mxCell id="Z_IEBth9gw-ow5rgfO6a-5" value="input1" style="text;html=1;strokeColor=none;fillColor=none;align=center;verticalAlign=middle;whiteSpace=wrap;rounded=0;" parent="1" vertex="1">
          <mxGeometry x="110" y="170" width="40" height="20" as="geometry" />
        </mxCell>
        <mxCell id="Z_IEBth9gw-ow5rgfO6a-6" value="input2" style="text;html=1;strokeColor=none;fillColor=none;align=center;verticalAlign=middle;whiteSpace=wrap;rounded=0;" parent="1" vertex="1">
          <mxGeometry x="100" y="230" width="40" height="20" as="geometry" />
        </mxCell>
        <mxCell id="Z_IEBth9gw-ow5rgfO6a-7" value="input3" style="text;html=1;strokeColor=none;fillColor=none;align=center;verticalAlign=middle;whiteSpace=wrap;rounded=0;" parent="1" vertex="1">
          <mxGeometry x="110" y="280" width="40" height="20" as="geometry" />
        </mxCell>
        <mxCell id="Z_IEBth9gw-ow5rgfO6a-8" value="" style="shape=flexArrow;endArrow=classic;html=1;fillColor=#CCFFCC;" parent="1" edge="1">
          <mxGeometry width="50" height="50" relative="1" as="geometry">
            <mxPoint x="350" y="219.5" as="sourcePoint" />
            <mxPoint x="420" y="219.5" as="targetPoint" />
          </mxGeometry>
        </mxCell>
        <mxCell id="Z_IEBth9gw-ow5rgfO6a-9" value="" style="shape=flexArrow;endArrow=classic;html=1;fillColor=#CCFFCC;" parent="1" edge="1">
          <mxGeometry width="50" height="50" relative="1" as="geometry">
            <mxPoint x="350" y="259.5" as="sourcePoint" />
            <mxPoint x="420" y="259.5" as="targetPoint" />
          </mxGeometry>
        </mxCell>
        <mxCell id="Z_IEBth9gw-ow5rgfO6a-10" value="output1" style="text;html=1;strokeColor=none;fillColor=none;align=center;verticalAlign=middle;whiteSpace=wrap;rounded=0;" parent="1" vertex="1">
          <mxGeometry x="430" y="210" width="40" height="20" as="geometry" />
        </mxCell>
        <mxCell id="Z_IEBth9gw-ow5rgfO6a-11" value="output2" style="text;html=1;strokeColor=none;fillColor=none;align=center;verticalAlign=middle;whiteSpace=wrap;rounded=0;" parent="1" vertex="1">
          <mxGeometry x="430" y="250" width="40" height="20" as="geometry" />
        </mxCell>
      </root>
    </mxGraphModel>
  </diagram>
  <diagram id="EXMl8K-wGiwJsakGkJpo" name="DclComponent">
    <mxGraphModel dx="2365" dy="2003" grid="1" gridSize="10" guides="1" tooltips="1" connect="1" arrows="1" fold="1" page="1" pageScale="1" pageWidth="827" pageHeight="1169" math="0" shadow="0">
      <root>
        <mxCell id="MlYdpT83mBNj7E6YTNjp-0" />
        <mxCell id="MlYdpT83mBNj7E6YTNjp-1" parent="MlYdpT83mBNj7E6YTNjp-0" />
        <mxCell id="MlYdpT83mBNj7E6YTNjp-22" value="" style="rounded=0;whiteSpace=wrap;html=1;strokeColor=#000000;fillColor=#FCFFB3;" parent="MlYdpT83mBNj7E6YTNjp-1" vertex="1">
          <mxGeometry x="150" y="117.5" width="290" height="122.5" as="geometry" />
        </mxCell>
        <mxCell id="MlYdpT83mBNj7E6YTNjp-23" value="CompileJavaWithJavacTask" style="text;html=1;strokeColor=none;fillColor=none;align=center;verticalAlign=middle;whiteSpace=wrap;rounded=0;" parent="MlYdpT83mBNj7E6YTNjp-1" vertex="1">
          <mxGeometry x="220" y="125" width="155" height="20" as="geometry" />
        </mxCell>
        <mxCell id="MlYdpT83mBNj7E6YTNjp-24" value="doFirst" style="rounded=0;whiteSpace=wrap;html=1;strokeColor=#000000;fillColor=#FFFF66;" parent="MlYdpT83mBNj7E6YTNjp-1" vertex="1">
          <mxGeometry x="180" y="165" width="80" height="35" as="geometry" />
        </mxCell>
        <mxCell id="MlYdpT83mBNj7E6YTNjp-25" value="OtherActions..." style="rounded=0;whiteSpace=wrap;html=1;strokeColor=#000000;fillColor=#FCFFB3;" parent="MlYdpT83mBNj7E6YTNjp-1" vertex="1">
          <mxGeometry x="290" y="160" width="130" height="40" as="geometry" />
        </mxCell>
        <mxCell id="MlYdpT83mBNj7E6YTNjp-31" value="&lt;span style=&quot;font-size: 14px&quot;&gt;JavaSourceSet&lt;/span&gt;" style="rounded=0;whiteSpace=wrap;html=1;strokeColor=#000000;fillColor=#CCFFCC;" parent="MlYdpT83mBNj7E6YTNjp-1" vertex="1">
          <mxGeometry x="-110" y="40" width="130" height="35" as="geometry" />
        </mxCell>
        <mxCell id="MlYdpT83mBNj7E6YTNjp-33" value="" style="curved=1;endArrow=classic;html=1;fillColor=#FFFFFF;entryX=0.5;entryY=1;entryDx=0;entryDy=0;exitX=0.5;exitY=1;exitDx=0;exitDy=0;strokeColor=#FF0000;startArrow=none;" parent="MlYdpT83mBNj7E6YTNjp-1" source="MlYdpT83mBNj7E6YTNjp-28" target="MlYdpT83mBNj7E6YTNjp-31" edge="1">
          <mxGeometry width="50" height="50" relative="1" as="geometry">
            <mxPoint x="350" y="340" as="sourcePoint" />
            <mxPoint x="380" y="430" as="targetPoint" />
            <Array as="points" />
          </mxGeometry>
        </mxCell>
        <mxCell id="MlYdpT83mBNj7E6YTNjp-37" value="input" style="text;html=1;strokeColor=none;fillColor=none;align=center;verticalAlign=middle;whiteSpace=wrap;rounded=0;" parent="MlYdpT83mBNj7E6YTNjp-1" vertex="1">
          <mxGeometry x="70" y="80" width="40" height="20" as="geometry" />
        </mxCell>
        <mxCell id="MlYdpT83mBNj7E6YTNjp-38" value="" style="shape=flexArrow;endArrow=classic;html=1;fillColor=#FFFFFF;" parent="MlYdpT83mBNj7E6YTNjp-1" edge="1">
          <mxGeometry width="50" height="50" relative="1" as="geometry">
            <mxPoint x="445" y="147" as="sourcePoint" />
            <mxPoint x="515" y="147" as="targetPoint" />
          </mxGeometry>
        </mxCell>
        <mxCell id="MlYdpT83mBNj7E6YTNjp-39" value="output" style="text;html=1;strokeColor=none;fillColor=none;align=center;verticalAlign=middle;whiteSpace=wrap;rounded=0;" parent="MlYdpT83mBNj7E6YTNjp-1" vertex="1">
          <mxGeometry x="455" y="117.5" width="40" height="20" as="geometry" />
        </mxCell>
        <mxCell id="MlYdpT83mBNj7E6YTNjp-40" value="&lt;span style=&quot;font-size: 14px&quot;&gt;../javac/xx.class&lt;/span&gt;" style="rounded=0;whiteSpace=wrap;html=1;strokeColor=#000000;fillColor=#CCE5FF;" parent="MlYdpT83mBNj7E6YTNjp-1" vertex="1">
          <mxGeometry x="525" y="130" width="110" height="35" as="geometry" />
        </mxCell>
        <mxCell id="MlYdpT83mBNj7E6YTNjp-41" value="" style="rounded=0;whiteSpace=wrap;html=1;strokeColor=#000000;fillColor=#FCFFB3;" parent="MlYdpT83mBNj7E6YTNjp-1" vertex="1">
          <mxGeometry x="150" y="-31.25" width="290" height="62.5" as="geometry" />
        </mxCell>
        <mxCell id="MlYdpT83mBNj7E6YTNjp-42" value="CompileDebugKotlinTask" style="text;html=1;strokeColor=none;fillColor=none;align=center;verticalAlign=middle;whiteSpace=wrap;rounded=0;" parent="MlYdpT83mBNj7E6YTNjp-1" vertex="1">
          <mxGeometry x="275" y="-5" width="40" height="20" as="geometry" />
        </mxCell>
        <mxCell id="MlYdpT83mBNj7E6YTNjp-48" value="" style="edgeStyle=orthogonalEdgeStyle;rounded=0;orthogonalLoop=1;jettySize=auto;html=1;strokeColor=#000000;fillColor=#FFFFFF;exitX=0.5;exitY=0;exitDx=0;exitDy=0;" parent="MlYdpT83mBNj7E6YTNjp-1" source="MlYdpT83mBNj7E6YTNjp-22" target="MlYdpT83mBNj7E6YTNjp-41" edge="1">
          <mxGeometry relative="1" as="geometry">
            <mxPoint x="315" y="110" as="sourcePoint" />
          </mxGeometry>
        </mxCell>
        <mxCell id="MlYdpT83mBNj7E6YTNjp-46" value="dependsOn" style="text;html=1;strokeColor=none;fillColor=none;align=center;verticalAlign=middle;whiteSpace=wrap;rounded=0;" parent="MlYdpT83mBNj7E6YTNjp-1" vertex="1">
          <mxGeometry x="275" y="70" width="40" height="20" as="geometry" />
        </mxCell>
        <mxCell id="MlYdpT83mBNj7E6YTNjp-51" value="" style="shape=flexArrow;endArrow=classic;html=1;strokeColor=#000000;fillColor=#FFFFFF;" parent="MlYdpT83mBNj7E6YTNjp-1" edge="1">
          <mxGeometry width="50" height="50" relative="1" as="geometry">
            <mxPoint x="30" y="80" as="sourcePoint" />
            <mxPoint x="140" y="130" as="targetPoint" />
          </mxGeometry>
        </mxCell>
        <mxCell id="MlYdpT83mBNj7E6YTNjp-52" value="" style="shape=flexArrow;endArrow=classic;html=1;strokeColor=#000000;fillColor=#FFFFFF;" parent="MlYdpT83mBNj7E6YTNjp-1" edge="1">
          <mxGeometry width="50" height="50" relative="1" as="geometry">
            <mxPoint x="30" y="40" as="sourcePoint" />
            <mxPoint x="140" y="-10" as="targetPoint" />
          </mxGeometry>
        </mxCell>
        <mxCell id="MlYdpT83mBNj7E6YTNjp-53" value="input" style="text;html=1;strokeColor=none;fillColor=none;align=center;verticalAlign=middle;whiteSpace=wrap;rounded=0;" parent="MlYdpT83mBNj7E6YTNjp-1" vertex="1">
          <mxGeometry x="50" y="-10" width="40" height="20" as="geometry" />
        </mxCell>
        <mxCell id="MlYdpT83mBNj7E6YTNjp-54" value="&lt;span style=&quot;font-size: 14px&quot;&gt;../kotlin-class/xxKt.class&lt;/span&gt;" style="rounded=0;whiteSpace=wrap;html=1;strokeColor=#000000;fillColor=#CCE5FF;" parent="MlYdpT83mBNj7E6YTNjp-1" vertex="1">
          <mxGeometry x="530" y="-25" width="180" height="35" as="geometry" />
        </mxCell>
        <mxCell id="MlYdpT83mBNj7E6YTNjp-55" value="" style="shape=flexArrow;endArrow=classic;html=1;fillColor=#FFFFFF;" parent="MlYdpT83mBNj7E6YTNjp-1" edge="1">
          <mxGeometry width="50" height="50" relative="1" as="geometry">
            <mxPoint x="450" y="-1" as="sourcePoint" />
            <mxPoint x="520" y="-1" as="targetPoint" />
          </mxGeometry>
        </mxCell>
        <mxCell id="MlYdpT83mBNj7E6YTNjp-56" value="output" style="text;html=1;strokeColor=none;fillColor=none;align=center;verticalAlign=middle;whiteSpace=wrap;rounded=0;" parent="MlYdpT83mBNj7E6YTNjp-1" vertex="1">
          <mxGeometry x="460" y="-25" width="40" height="20" as="geometry" />
        </mxCell>
        <mxCell id="MlYdpT83mBNj7E6YTNjp-28" value="&lt;font style=&quot;font-size: 14px&quot;&gt;添加DclComponentHelper.java&lt;/font&gt;" style="text;html=1;strokeColor=none;fillColor=none;align=center;verticalAlign=middle;whiteSpace=wrap;rounded=0;" parent="MlYdpT83mBNj7E6YTNjp-1" vertex="1">
          <mxGeometry x="-80" y="125" width="40" height="20" as="geometry" />
        </mxCell>
        <mxCell id="MlYdpT83mBNj7E6YTNjp-57" value="" style="curved=1;endArrow=none;html=1;fillColor=#FFFFFF;entryX=0.5;entryY=1;entryDx=0;entryDy=0;exitX=0.5;exitY=1;exitDx=0;exitDy=0;strokeColor=#FF0000;" parent="MlYdpT83mBNj7E6YTNjp-1" source="MlYdpT83mBNj7E6YTNjp-24" target="MlYdpT83mBNj7E6YTNjp-28" edge="1">
          <mxGeometry width="50" height="50" relative="1" as="geometry">
            <mxPoint x="220" y="200" as="sourcePoint" />
            <mxPoint x="-45" y="75" as="targetPoint" />
            <Array as="points">
              <mxPoint x="210" y="250" />
              <mxPoint x="120" y="250" />
              <mxPoint x="-70" y="250" />
            </Array>
          </mxGeometry>
        </mxCell>
        <mxCell id="MlYdpT83mBNj7E6YTNjp-73" value="" style="shape=flexArrow;endArrow=classic;html=1;strokeColor=#000000;fillColor=#FFFFFF;" parent="MlYdpT83mBNj7E6YTNjp-1" edge="1">
          <mxGeometry width="50" height="50" relative="1" as="geometry">
            <mxPoint x="90" y="194.5" as="sourcePoint" />
            <mxPoint x="150" y="194.5" as="targetPoint" />
          </mxGeometry>
        </mxCell>
        <mxCell id="MlYdpT83mBNj7E6YTNjp-74" value="input" style="text;html=1;strokeColor=none;fillColor=none;align=center;verticalAlign=middle;whiteSpace=wrap;rounded=0;" parent="MlYdpT83mBNj7E6YTNjp-1" vertex="1">
          <mxGeometry x="90" y="172.5" width="40" height="20" as="geometry" />
        </mxCell>
        <mxCell id="MlYdpT83mBNj7E6YTNjp-76" value="&lt;span&gt;DclComponentHelper.txt&lt;br&gt;&lt;/span&gt;DclConfig.java" style="ellipse;whiteSpace=wrap;html=1;strokeColor=#000000;fillColor=#00FF80;" parent="MlYdpT83mBNj7E6YTNjp-1" vertex="1">
          <mxGeometry x="-60" y="165" width="150" height="60" as="geometry" />
        </mxCell>
        <mxCell id="MlYdpT83mBNj7E6YTNjp-78" value="" style="shape=flexArrow;endArrow=classic;html=1;fillColor=#FFFFFF;" parent="MlYdpT83mBNj7E6YTNjp-1" edge="1">
          <mxGeometry width="50" height="50" relative="1" as="geometry">
            <mxPoint x="440" y="210" as="sourcePoint" />
            <mxPoint x="510" y="210" as="targetPoint" />
          </mxGeometry>
        </mxCell>
        <mxCell id="MlYdpT83mBNj7E6YTNjp-79" value="output" style="text;html=1;align=center;verticalAlign=middle;resizable=0;points=[];autosize=1;strokeColor=none;" parent="MlYdpT83mBNj7E6YTNjp-1" vertex="1">
          <mxGeometry x="440" y="190" width="50" height="20" as="geometry" />
        </mxCell>
        <mxCell id="MlYdpT83mBNj7E6YTNjp-80" value="&lt;span style=&quot;font-size: 14px&quot;&gt;DclComponentHelper.java&lt;/span&gt;" style="rounded=0;whiteSpace=wrap;html=1;strokeColor=#000000;fillColor=#007FFF;" parent="MlYdpT83mBNj7E6YTNjp-1" vertex="1">
          <mxGeometry x="520" y="200" width="170" height="35" as="geometry" />
        </mxCell>
      </root>
    </mxGraphModel>
  </diagram>
  <diagram id="N9qtTrmolS3If2orTkl-" name="Page-3">
    <mxGraphModel dx="2365" dy="2003" grid="1" gridSize="10" guides="1" tooltips="1" connect="1" arrows="1" fold="1" page="1" pageScale="1" pageWidth="827" pageHeight="1169" math="0" shadow="0">
      <root>
        <mxCell id="apqIFpjq2JTikol0ZTP_-0" />
        <mxCell id="apqIFpjq2JTikol0ZTP_-1" parent="apqIFpjq2JTikol0ZTP_-0" />
        <mxCell id="apqIFpjq2JTikol0ZTP_-2" value="" style="rounded=0;whiteSpace=wrap;html=1;strokeColor=#000000;fillColor=#FCFFB3;" parent="apqIFpjq2JTikol0ZTP_-1" vertex="1">
          <mxGeometry x="160" y="127.5" width="290" height="72.5" as="geometry" />
        </mxCell>
        <mxCell id="apqIFpjq2JTikol0ZTP_-3" value="CompileJavaWithJavacTask" style="text;html=1;strokeColor=none;fillColor=none;align=center;verticalAlign=middle;whiteSpace=wrap;rounded=0;" parent="apqIFpjq2JTikol0ZTP_-1" vertex="1">
          <mxGeometry x="230" y="135" width="155" height="20" as="geometry" />
        </mxCell>
        <mxCell id="apqIFpjq2JTikol0ZTP_-5" value="OtherActions..." style="rounded=0;whiteSpace=wrap;html=1;strokeColor=#000000;fillColor=#FCFFB3;" parent="apqIFpjq2JTikol0ZTP_-1" vertex="1">
          <mxGeometry x="240" y="155" width="130" height="40" as="geometry" />
        </mxCell>
        <mxCell id="apqIFpjq2JTikol0ZTP_-6" value="&lt;span style=&quot;font-size: 14px&quot;&gt;JavaSourceSet&lt;/span&gt;" style="rounded=0;whiteSpace=wrap;html=1;strokeColor=#000000;fillColor=#CCFFCC;" parent="apqIFpjq2JTikol0ZTP_-1" vertex="1">
          <mxGeometry x="-100" y="50" width="130" height="35" as="geometry" />
        </mxCell>
        <mxCell id="apqIFpjq2JTikol0ZTP_-8" value="input" style="text;html=1;strokeColor=none;fillColor=none;align=center;verticalAlign=middle;whiteSpace=wrap;rounded=0;" parent="apqIFpjq2JTikol0ZTP_-1" vertex="1">
          <mxGeometry x="80" y="90" width="40" height="20" as="geometry" />
        </mxCell>
        <mxCell id="apqIFpjq2JTikol0ZTP_-9" value="" style="shape=flexArrow;endArrow=classic;html=1;fillColor=#FFFFFF;" parent="apqIFpjq2JTikol0ZTP_-1" edge="1">
          <mxGeometry width="50" height="50" relative="1" as="geometry">
            <mxPoint x="455" y="157" as="sourcePoint" />
            <mxPoint x="525" y="157" as="targetPoint" />
          </mxGeometry>
        </mxCell>
        <mxCell id="apqIFpjq2JTikol0ZTP_-10" value="output" style="text;html=1;strokeColor=none;fillColor=none;align=center;verticalAlign=middle;whiteSpace=wrap;rounded=0;" parent="apqIFpjq2JTikol0ZTP_-1" vertex="1">
          <mxGeometry x="465" y="127.5" width="40" height="20" as="geometry" />
        </mxCell>
        <mxCell id="apqIFpjq2JTikol0ZTP_-11" value="&lt;span style=&quot;font-size: 14px&quot;&gt;../javac/xx.class&lt;/span&gt;" style="rounded=0;whiteSpace=wrap;html=1;strokeColor=#000000;fillColor=#CCE5FF;" parent="apqIFpjq2JTikol0ZTP_-1" vertex="1">
          <mxGeometry x="535" y="140" width="110" height="35" as="geometry" />
        </mxCell>
        <mxCell id="DFMkG7MAigzUIdptMwnb-14" value="" style="edgeStyle=orthogonalEdgeStyle;rounded=0;orthogonalLoop=1;jettySize=auto;html=1;strokeColor=#000000;fillColor=#FFFFFF;" parent="apqIFpjq2JTikol0ZTP_-1" source="apqIFpjq2JTikol0ZTP_-12" target="apqIFpjq2JTikol0ZTP_-30" edge="1">
          <mxGeometry relative="1" as="geometry" />
        </mxCell>
        <mxCell id="apqIFpjq2JTikol0ZTP_-12" value="" style="rounded=0;whiteSpace=wrap;html=1;strokeColor=#000000;fillColor=#FCFFB3;" parent="apqIFpjq2JTikol0ZTP_-1" vertex="1">
          <mxGeometry x="160" y="-21.25" width="290" height="62.5" as="geometry" />
        </mxCell>
        <mxCell id="apqIFpjq2JTikol0ZTP_-13" value="CompileDebugKotlinTask" style="text;html=1;strokeColor=none;fillColor=none;align=center;verticalAlign=middle;whiteSpace=wrap;rounded=0;" parent="apqIFpjq2JTikol0ZTP_-1" vertex="1">
          <mxGeometry x="285" y="5" width="40" height="20" as="geometry" />
        </mxCell>
        <mxCell id="apqIFpjq2JTikol0ZTP_-14" value="" style="edgeStyle=orthogonalEdgeStyle;rounded=0;orthogonalLoop=1;jettySize=auto;html=1;strokeColor=#000000;fillColor=#FFFFFF;exitX=0.5;exitY=0;exitDx=0;exitDy=0;" parent="apqIFpjq2JTikol0ZTP_-1" source="apqIFpjq2JTikol0ZTP_-2" target="apqIFpjq2JTikol0ZTP_-12" edge="1">
          <mxGeometry relative="1" as="geometry">
            <mxPoint x="325" y="120" as="sourcePoint" />
          </mxGeometry>
        </mxCell>
        <mxCell id="apqIFpjq2JTikol0ZTP_-15" value="dependsOn" style="text;html=1;strokeColor=none;fillColor=none;align=center;verticalAlign=middle;whiteSpace=wrap;rounded=0;" parent="apqIFpjq2JTikol0ZTP_-1" vertex="1">
          <mxGeometry x="285" y="80" width="40" height="20" as="geometry" />
        </mxCell>
        <mxCell id="apqIFpjq2JTikol0ZTP_-16" value="" style="shape=flexArrow;endArrow=classic;html=1;strokeColor=#000000;fillColor=#FFFFFF;" parent="apqIFpjq2JTikol0ZTP_-1" edge="1">
          <mxGeometry width="50" height="50" relative="1" as="geometry">
            <mxPoint x="40" y="90" as="sourcePoint" />
            <mxPoint x="150" y="140" as="targetPoint" />
          </mxGeometry>
        </mxCell>
        <mxCell id="apqIFpjq2JTikol0ZTP_-17" value="" style="shape=flexArrow;endArrow=classic;html=1;strokeColor=#000000;fillColor=#FFFFFF;" parent="apqIFpjq2JTikol0ZTP_-1" edge="1">
          <mxGeometry width="50" height="50" relative="1" as="geometry">
            <mxPoint x="40" y="50" as="sourcePoint" />
            <mxPoint x="150" as="targetPoint" />
          </mxGeometry>
        </mxCell>
        <mxCell id="apqIFpjq2JTikol0ZTP_-18" value="input" style="text;html=1;strokeColor=none;fillColor=none;align=center;verticalAlign=middle;whiteSpace=wrap;rounded=0;" parent="apqIFpjq2JTikol0ZTP_-1" vertex="1">
          <mxGeometry x="60" width="40" height="20" as="geometry" />
        </mxCell>
        <mxCell id="apqIFpjq2JTikol0ZTP_-19" value="&lt;span style=&quot;font-size: 14px&quot;&gt;../kotlin-class/xxKt.class&lt;/span&gt;" style="rounded=0;whiteSpace=wrap;html=1;strokeColor=#000000;fillColor=#CCE5FF;" parent="apqIFpjq2JTikol0ZTP_-1" vertex="1">
          <mxGeometry x="540" y="-15" width="180" height="35" as="geometry" />
        </mxCell>
        <mxCell id="apqIFpjq2JTikol0ZTP_-20" value="" style="shape=flexArrow;endArrow=classic;html=1;fillColor=#FFFFFF;" parent="apqIFpjq2JTikol0ZTP_-1" edge="1">
          <mxGeometry width="50" height="50" relative="1" as="geometry">
            <mxPoint x="460" y="9" as="sourcePoint" />
            <mxPoint x="530" y="9" as="targetPoint" />
          </mxGeometry>
        </mxCell>
        <mxCell id="apqIFpjq2JTikol0ZTP_-21" value="output" style="text;html=1;strokeColor=none;fillColor=none;align=center;verticalAlign=middle;whiteSpace=wrap;rounded=0;" parent="apqIFpjq2JTikol0ZTP_-1" vertex="1">
          <mxGeometry x="470" y="-15" width="40" height="20" as="geometry" />
        </mxCell>
        <mxCell id="apqIFpjq2JTikol0ZTP_-30" value="GenerateDclHelperTask" style="rounded=0;whiteSpace=wrap;html=1;strokeColor=#000000;fillColor=#FCFFB3;" parent="apqIFpjq2JTikol0ZTP_-1" vertex="1">
          <mxGeometry x="160" y="-120" width="290" height="50" as="geometry" />
        </mxCell>
        <mxCell id="DFMkG7MAigzUIdptMwnb-0" value="" style="shape=flexArrow;endArrow=classic;html=1;strokeColor=#000000;fillColor=#FFFFFF;" parent="apqIFpjq2JTikol0ZTP_-1" edge="1">
          <mxGeometry width="50" height="50" relative="1" as="geometry">
            <mxPoint x="100" y="-95.5" as="sourcePoint" />
            <mxPoint x="160" y="-95.5" as="targetPoint" />
          </mxGeometry>
        </mxCell>
        <mxCell id="DFMkG7MAigzUIdptMwnb-1" value="input" style="text;html=1;strokeColor=none;fillColor=none;align=center;verticalAlign=middle;whiteSpace=wrap;rounded=0;" parent="apqIFpjq2JTikol0ZTP_-1" vertex="1">
          <mxGeometry x="100" y="-117.5" width="40" height="20" as="geometry" />
        </mxCell>
        <mxCell id="DFMkG7MAigzUIdptMwnb-2" value="&lt;span&gt;DclComponentHelper.txt&lt;br&gt;&lt;/span&gt;DclConfig.java" style="ellipse;whiteSpace=wrap;html=1;strokeColor=#000000;fillColor=#00FF80;" parent="apqIFpjq2JTikol0ZTP_-1" vertex="1">
          <mxGeometry x="-50" y="-125" width="150" height="60" as="geometry" />
        </mxCell>
        <mxCell id="DFMkG7MAigzUIdptMwnb-3" value="" style="curved=1;endArrow=classic;html=1;strokeColor=#FF0000;fillColor=#FFFFFF;entryX=0.154;entryY=-0.057;entryDx=0;entryDy=0;entryPerimeter=0;" parent="apqIFpjq2JTikol0ZTP_-1" target="apqIFpjq2JTikol0ZTP_-6" edge="1">
          <mxGeometry width="50" height="50" relative="1" as="geometry">
            <mxPoint x="455" y="-97.5" as="sourcePoint" />
            <mxPoint x="-140" y="-80" as="targetPoint" />
            <Array as="points">
              <mxPoint x="505" y="-97.5" />
              <mxPoint x="455" y="-147.5" />
              <mxPoint x="80" y="-290" />
              <mxPoint x="-70" y="-200" />
            </Array>
          </mxGeometry>
        </mxCell>
        <mxCell id="DFMkG7MAigzUIdptMwnb-5" value="output:&amp;nbsp;&amp;nbsp;&lt;br&gt;&lt;span style=&quot;font-family: &amp;#34;helvetica&amp;#34; ; font-size: 14px&quot;&gt;DclComponentHelper.java&lt;/span&gt;" style="text;html=1;strokeColor=none;fillColor=none;align=center;verticalAlign=middle;whiteSpace=wrap;rounded=0;" parent="apqIFpjq2JTikol0ZTP_-1" vertex="1">
          <mxGeometry x="260" y="-230" width="40" height="20" as="geometry" />
        </mxCell>
        <mxCell id="DFMkG7MAigzUIdptMwnb-11" value="dependsOn" style="text;html=1;strokeColor=none;fillColor=none;align=center;verticalAlign=middle;whiteSpace=wrap;rounded=0;" parent="apqIFpjq2JTikol0ZTP_-1" vertex="1">
          <mxGeometry x="287.5" y="-60" width="40" height="20" as="geometry" />
        </mxCell>
      </root>
    </mxGraphModel>
  </diagram>
  <diagram id="wLY2yFhKOoR8YxuU-z_W" name="mainDex">
    <mxGraphModel dx="2365" dy="834" grid="1" gridSize="10" guides="1" tooltips="1" connect="1" arrows="1" fold="1" page="1" pageScale="1" pageWidth="827" pageHeight="1169" math="0" shadow="0">
      <root>
        <mxCell id="586_edTztnbqT8I5WblZ-0" />
        <mxCell id="586_edTztnbqT8I5WblZ-1" parent="586_edTztnbqT8I5WblZ-0" />
        <mxCell id="MLpaHOlsfm-etkGLEHkd-0" value="&lt;b&gt;MainDexList.txt&lt;/b&gt;" style="rounded=0;whiteSpace=wrap;html=1;strokeColor=#000000;fillColor=#FF9999;" parent="586_edTztnbqT8I5WblZ-1" vertex="1">
          <mxGeometry x="180" y="285" width="130" height="30" as="geometry" />
        </mxCell>
        <mxCell id="oFrm5svGlpeNau2XW701-0" value="multiDexListDebugTask" style="rounded=0;whiteSpace=wrap;html=1;strokeColor=#000000;fillColor=#FCFFB3;" parent="586_edTztnbqT8I5WblZ-1" vertex="1">
          <mxGeometry x="-140" y="272.5" width="250" height="55" as="geometry" />
        </mxCell>
        <mxCell id="oFrm5svGlpeNau2XW701-2" value="" style="shape=flexArrow;endArrow=classic;html=1;strokeColor=#000000;fillColor=#FFFFFF;exitX=1;exitY=0.5;exitDx=0;exitDy=0;entryX=0;entryY=0.5;entryDx=0;entryDy=0;" parent="586_edTztnbqT8I5WblZ-1" source="oFrm5svGlpeNau2XW701-0" target="MLpaHOlsfm-etkGLEHkd-0" edge="1">
          <mxGeometry width="50" height="50" relative="1" as="geometry">
            <mxPoint x="110" y="299.5" as="sourcePoint" />
            <mxPoint x="170" y="300" as="targetPoint" />
          </mxGeometry>
        </mxCell>
        <mxCell id="oFrm5svGlpeNau2XW701-3" value="output" style="text;html=1;strokeColor=none;fillColor=none;align=center;verticalAlign=middle;whiteSpace=wrap;rounded=0;" parent="586_edTztnbqT8I5WblZ-1" vertex="1">
          <mxGeometry x="120" y="270" width="40" height="20" as="geometry" />
        </mxCell>
        <mxCell id="oFrm5svGlpeNau2XW701-4" value="generateNewDebugMainDexClassListDebugTask" style="rounded=0;whiteSpace=wrap;html=1;strokeColor=#000000;fillColor=#FCFFB3;" parent="586_edTztnbqT8I5WblZ-1" vertex="1">
          <mxGeometry x="-150" y="380" width="270" height="55" as="geometry" />
        </mxCell>
        <mxCell id="oFrm5svGlpeNau2XW701-9" value="" style="curved=1;endArrow=classic;html=1;strokeColor=#000000;fillColor=#FFFFFF;entryX=-0.004;entryY=0.873;entryDx=0;entryDy=0;entryPerimeter=0;" parent="586_edTztnbqT8I5WblZ-1" target="oFrm5svGlpeNau2XW701-4" edge="1">
          <mxGeometry width="50" height="50" relative="1" as="geometry">
            <mxPoint x="240" y="315" as="sourcePoint" />
            <mxPoint x="-210" y="460" as="targetPoint" />
            <Array as="points">
              <mxPoint x="250" y="375" />
              <mxPoint x="150" y="505" />
              <mxPoint x="-170" y="500" />
            </Array>
          </mxGeometry>
        </mxCell>
        <mxCell id="oFrm5svGlpeNau2XW701-10" value="" style="endArrow=classic;html=1;strokeColor=#000000;fillColor=#FFFFFF;exitX=1;exitY=0.5;exitDx=0;exitDy=0;" parent="586_edTztnbqT8I5WblZ-1" source="oFrm5svGlpeNau2XW701-4" edge="1">
          <mxGeometry width="50" height="50" relative="1" as="geometry">
            <mxPoint x="100" y="400" as="sourcePoint" />
            <mxPoint x="180" y="310" as="targetPoint" />
          </mxGeometry>
        </mxCell>
        <mxCell id="oFrm5svGlpeNau2XW701-11" value="output" style="text;html=1;strokeColor=none;fillColor=none;align=center;verticalAlign=middle;whiteSpace=wrap;rounded=0;" parent="586_edTztnbqT8I5WblZ-1" vertex="1">
          <mxGeometry x="120" y="340" width="40" height="20" as="geometry" />
        </mxCell>
        <mxCell id="oFrm5svGlpeNau2XW701-12" value="" style="endArrow=classic;html=1;strokeColor=#000000;fillColor=#FFFFFF;" parent="586_edTztnbqT8I5WblZ-1" edge="1">
          <mxGeometry width="50" height="50" relative="1" as="geometry">
            <mxPoint x="-210" y="410" as="sourcePoint" />
            <mxPoint x="-150" y="410" as="targetPoint" />
          </mxGeometry>
        </mxCell>
        <mxCell id="oFrm5svGlpeNau2XW701-13" value="intput" style="text;html=1;strokeColor=none;fillColor=none;align=center;verticalAlign=middle;whiteSpace=wrap;rounded=0;" parent="586_edTztnbqT8I5WblZ-1" vertex="1">
          <mxGeometry x="-200" y="390" width="40" height="20" as="geometry" />
        </mxCell>
        <mxCell id="oFrm5svGlpeNau2XW701-14" value="intput" style="text;html=1;strokeColor=none;fillColor=none;align=center;verticalAlign=middle;whiteSpace=wrap;rounded=0;" parent="586_edTztnbqT8I5WblZ-1" vertex="1">
          <mxGeometry x="-30" y="480" width="40" height="20" as="geometry" />
        </mxCell>
        <mxCell id="oFrm5svGlpeNau2XW701-15" value="&lt;b&gt;MultidexRemoveFirstDexList.txt&lt;/b&gt;" style="rounded=0;whiteSpace=wrap;html=1;strokeColor=#000000;fillColor=#99CCFF;" parent="586_edTztnbqT8I5WblZ-1" vertex="1">
          <mxGeometry x="-400" y="392.5" width="190" height="30" as="geometry" />
        </mxCell>
        <mxCell id="oFrm5svGlpeNau2XW701-16" value="finalizedBy" style="endArrow=block;endSize=16;endFill=0;html=1;strokeColor=#000000;fillColor=#FFFFFF;" parent="586_edTztnbqT8I5WblZ-1" edge="1">
          <mxGeometry x="-0.2" width="160" relative="1" as="geometry">
            <mxPoint x="-15.5" y="330" as="sourcePoint" />
            <mxPoint x="-15.5" y="380" as="targetPoint" />
            <mxPoint as="offset" />
          </mxGeometry>
        </mxCell>
      </root>
    </mxGraphModel>
  </diagram>
  <diagram id="lZ_pKcOQbhxh-FKQbJVE" name="Page-5">
    <mxGraphModel dx="2365" dy="834" grid="1" gridSize="10" guides="1" tooltips="1" connect="1" arrows="1" fold="1" page="1" pageScale="1" pageWidth="827" pageHeight="1169" math="0" shadow="0">
      <root>
        <mxCell id="GPuzH5GW3QqYHYsHvITz-0" />
        <mxCell id="GPuzH5GW3QqYHYsHvITz-1" parent="GPuzH5GW3QqYHYsHvITz-0" />
        <mxCell id="GPuzH5GW3QqYHYsHvITz-2" value="&lt;b&gt;MainDexList.txt&lt;/b&gt;" style="rounded=0;whiteSpace=wrap;html=1;strokeColor=#000000;fillColor=#FF9999;" vertex="1" parent="GPuzH5GW3QqYHYsHvITz-1">
          <mxGeometry x="180" y="285" width="130" height="30" as="geometry" />
        </mxCell>
        <mxCell id="GPuzH5GW3QqYHYsHvITz-3" value="multiDexListDebugTask" style="rounded=0;whiteSpace=wrap;html=1;strokeColor=#000000;fillColor=#FCFFB3;" vertex="1" parent="GPuzH5GW3QqYHYsHvITz-1">
          <mxGeometry x="-140" y="272.5" width="250" height="55" as="geometry" />
        </mxCell>
        <mxCell id="GPuzH5GW3QqYHYsHvITz-4" value="" style="shape=flexArrow;endArrow=classic;html=1;strokeColor=#000000;fillColor=#FFFFFF;exitX=1;exitY=0.5;exitDx=0;exitDy=0;entryX=0;entryY=0.5;entryDx=0;entryDy=0;" edge="1" parent="GPuzH5GW3QqYHYsHvITz-1" source="GPuzH5GW3QqYHYsHvITz-3" target="GPuzH5GW3QqYHYsHvITz-2">
          <mxGeometry width="50" height="50" relative="1" as="geometry">
            <mxPoint x="110" y="299.5" as="sourcePoint" />
            <mxPoint x="170" y="300" as="targetPoint" />
          </mxGeometry>
        </mxCell>
        <mxCell id="GPuzH5GW3QqYHYsHvITz-5" value="output" style="text;html=1;strokeColor=none;fillColor=none;align=center;verticalAlign=middle;whiteSpace=wrap;rounded=0;" vertex="1" parent="GPuzH5GW3QqYHYsHvITz-1">
          <mxGeometry x="120" y="270" width="40" height="20" as="geometry" />
        </mxCell>
        <mxCell id="GPuzH5GW3QqYHYsHvITz-6" value="transformClassesWithDexBuilderForDebug" style="rounded=0;whiteSpace=wrap;html=1;strokeColor=#000000;fillColor=#FCFFB3;" vertex="1" parent="GPuzH5GW3QqYHYsHvITz-1">
          <mxGeometry x="-140" y="140" width="270" height="55" as="geometry" />
        </mxCell>
        <mxCell id="GPuzH5GW3QqYHYsHvITz-9" value="output" style="text;html=1;strokeColor=none;fillColor=none;align=center;verticalAlign=middle;whiteSpace=wrap;rounded=0;" vertex="1" parent="GPuzH5GW3QqYHYsHvITz-1">
          <mxGeometry x="120" y="340" width="40" height="20" as="geometry" />
        </mxCell>
        <mxCell id="GPuzH5GW3QqYHYsHvITz-10" value="" style="endArrow=classic;html=1;strokeColor=#000000;fillColor=#FFFFFF;" edge="1" parent="GPuzH5GW3QqYHYsHvITz-1">
          <mxGeometry width="50" height="50" relative="1" as="geometry">
            <mxPoint x="-210" y="410" as="sourcePoint" />
            <mxPoint x="-150" y="410" as="targetPoint" />
          </mxGeometry>
        </mxCell>
        <mxCell id="GPuzH5GW3QqYHYsHvITz-11" value="intput" style="text;html=1;strokeColor=none;fillColor=none;align=center;verticalAlign=middle;whiteSpace=wrap;rounded=0;" vertex="1" parent="GPuzH5GW3QqYHYsHvITz-1">
          <mxGeometry x="-200" y="390" width="40" height="20" as="geometry" />
        </mxCell>
        <mxCell id="GPuzH5GW3QqYHYsHvITz-12" value="intput" style="text;html=1;strokeColor=none;fillColor=none;align=center;verticalAlign=middle;whiteSpace=wrap;rounded=0;" vertex="1" parent="GPuzH5GW3QqYHYsHvITz-1">
          <mxGeometry x="-30" y="480" width="40" height="20" as="geometry" />
        </mxCell>
        <mxCell id="GPuzH5GW3QqYHYsHvITz-13" value="&lt;b&gt;本项目产生的.class&lt;/b&gt;" style="rounded=0;whiteSpace=wrap;html=1;strokeColor=#000000;fillColor=#99CCFF;" vertex="1" parent="GPuzH5GW3QqYHYsHvITz-1">
          <mxGeometry x="-400" y="392.5" width="190" height="30" as="geometry" />
        </mxCell>
        <mxCell id="GPuzH5GW3QqYHYsHvITz-14" value="finalizedBy" style="endArrow=block;endSize=16;endFill=0;html=1;strokeColor=#000000;fillColor=#FFFFFF;" edge="1" parent="GPuzH5GW3QqYHYsHvITz-1">
          <mxGeometry x="-0.2" width="160" relative="1" as="geometry">
            <mxPoint x="-15.5" y="330" as="sourcePoint" />
            <mxPoint x="-15.5" y="380" as="targetPoint" />
            <mxPoint as="offset" />
          </mxGeometry>
        </mxCell>
        <mxCell id="GPuzH5GW3QqYHYsHvITz-15" value="MergeDexDebugTask" style="rounded=0;whiteSpace=wrap;html=1;strokeColor=#000000;fillColor=#FCFFB3;" vertex="1" parent="GPuzH5GW3QqYHYsHvITz-1">
          <mxGeometry x="-135" y="422.5" width="250" height="55" as="geometry" />
        </mxCell>
        <mxCell id="GPuzH5GW3QqYHYsHvITz-16" value="" style="endArrow=classic;html=1;strokeColor=#000000;fillColor=#FFFFFF;" edge="1" parent="GPuzH5GW3QqYHYsHvITz-1">
          <mxGeometry width="50" height="50" relative="1" as="geometry">
            <mxPoint x="-200" y="150" as="sourcePoint" />
            <mxPoint x="-140" y="150" as="targetPoint" />
          </mxGeometry>
        </mxCell>
        <mxCell id="GPuzH5GW3QqYHYsHvITz-17" value="intput" style="text;html=1;strokeColor=none;fillColor=none;align=center;verticalAlign=middle;whiteSpace=wrap;rounded=0;" vertex="1" parent="GPuzH5GW3QqYHYsHvITz-1">
          <mxGeometry x="-190" y="130" width="40" height="20" as="geometry" />
        </mxCell>
        <mxCell id="GPuzH5GW3QqYHYsHvITz-18" value="本项目产生的.class" style="rounded=0;whiteSpace=wrap;html=1;strokeColor=#000000;fillColor=#99CCFF;" vertex="1" parent="GPuzH5GW3QqYHYsHvITz-1">
          <mxGeometry x="-390" y="132.5" width="190" height="30" as="geometry" />
        </mxCell>
        <mxCell id="GPuzH5GW3QqYHYsHvITz-19" value="" style="endArrow=classic;html=1;strokeColor=#000000;fillColor=#FFFFFF;" edge="1" parent="GPuzH5GW3QqYHYsHvITz-1">
          <mxGeometry width="50" height="50" relative="1" as="geometry">
            <mxPoint x="-200" y="182.5" as="sourcePoint" />
            <mxPoint x="-140" y="182.5" as="targetPoint" />
          </mxGeometry>
        </mxCell>
        <mxCell id="GPuzH5GW3QqYHYsHvITz-20" value="intput" style="text;html=1;strokeColor=none;fillColor=none;align=center;verticalAlign=middle;whiteSpace=wrap;rounded=0;" vertex="1" parent="GPuzH5GW3QqYHYsHvITz-1">
          <mxGeometry x="-190" y="162.5" width="40" height="20" as="geometry" />
        </mxCell>
        <mxCell id="GPuzH5GW3QqYHYsHvITz-21" value="依赖的jar" style="rounded=0;whiteSpace=wrap;html=1;strokeColor=#000000;fillColor=#99CCFF;" vertex="1" parent="GPuzH5GW3QqYHYsHvITz-1">
          <mxGeometry x="-390" y="165" width="190" height="30" as="geometry" />
        </mxCell>
        <mxCell id="GPuzH5GW3QqYHYsHvITz-22" value="" style="endArrow=classic;html=1;strokeColor=#000000;fillColor=#FFFFFF;" edge="1" parent="GPuzH5GW3QqYHYsHvITz-1">
          <mxGeometry width="50" height="50" relative="1" as="geometry">
            <mxPoint x="130" y="170" as="sourcePoint" />
            <mxPoint x="190" y="170" as="targetPoint" />
          </mxGeometry>
        </mxCell>
        <mxCell id="GPuzH5GW3QqYHYsHvITz-23" value="output" style="text;html=1;strokeColor=none;fillColor=none;align=center;verticalAlign=middle;whiteSpace=wrap;rounded=0;" vertex="1" parent="GPuzH5GW3QqYHYsHvITz-1">
          <mxGeometry x="140" y="150" width="40" height="20" as="geometry" />
        </mxCell>
        <mxCell id="GPuzH5GW3QqYHYsHvITz-24" value="1.jar, 2.jar, 3.jar.....899.jar" style="rounded=0;whiteSpace=wrap;html=1;strokeColor=#000000;fillColor=#99CCFF;" vertex="1" parent="GPuzH5GW3QqYHYsHvITz-1">
          <mxGeometry x="190" y="152.5" width="170" height="37.5" as="geometry" />
        </mxCell>
        <mxCell id="GPuzH5GW3QqYHYsHvITz-25" value="" style="curved=1;endArrow=classic;html=1;entryX=0;entryY=0.5;entryDx=0;entryDy=0;" edge="1" parent="GPuzH5GW3QqYHYsHvITz-1" target="GPuzH5GW3QqYHYsHvITz-3">
          <mxGeometry width="50" height="50" relative="1" as="geometry">
            <mxPoint x="280" y="190" as="sourcePoint" />
            <mxPoint x="-210" y="300" as="targetPoint" />
            <Array as="points">
              <mxPoint x="220" y="210" />
              <mxPoint x="170" y="220" />
              <mxPoint x="-180" y="220" />
              <mxPoint x="-240" y="260" />
              <mxPoint x="-200" y="300" />
            </Array>
          </mxGeometry>
        </mxCell>
      </root>
    </mxGraphModel>
  </diagram>
</mxfile>
